<?xml version="1.0" encoding="UTF-8"?>
<svg xmlns="http://www.w3.org/2000/svg" version="1.1" viewBox="0 0 3000 3000">
  <!-- Generator: Adobe Illustrator 29.6.1, SVG Export Plug-In . SVG Version: 2.1.1 Build 9)  -->
  <defs>
    <style>
      .st0, .st1 {
        fill: #fff;
      }

      .st1 {
        fill-rule: evenodd;
      }
    </style>
  </defs>
  <g id="object">
    <path class="st0" d="M459.3,1325.7c176.1-13.3,352.3-20.2,528.4-24.9,88.1-3,176.1-3.5,264.2-5.3,88.1-.9,176.1-1.2,264.2-1.7,88.1.6,176.1.7,264.2,1.8,88.1,1.7,176.1,2.4,264.2,5.3,176.1,4.7,352.3,11.6,528.4,24.8v3.8l-1056.8,1.9-1056.8-1.9v-3.8Z"/>
    <polygon class="st0" points="1516.1 1868.3 1538.9 1914.5 1590 1921.9 1553 1957.9 1561.7 2008.8 1516.1 1984.8 1470.4 2008.8 1479.2 1957.9 1442.2 1921.9 1493.3 1914.5 1516.1 1868.3"/>
    <polygon class="st0" points="1751.3 1887.3 1760.2 1905.3 1780 1908.2 1765.7 1922.2 1769.1 1942 1751.3 1932.7 1733.5 1942 1736.9 1922.2 1722.5 1908.2 1742.4 1905.3 1751.3 1887.3"/>
    <polygon class="st0" points="1280.9 1887.3 1289.8 1905.3 1309.7 1908.2 1295.3 1922.2 1298.7 1942 1280.9 1932.7 1263.1 1942 1266.5 1922.2 1252.1 1908.2 1272 1905.3 1280.9 1887.3"/>
    <polygon class="st0" points="1658.4 1883 1673.9 1914.3 1708.4 1919.3 1683.4 1943.7 1689.3 1978.1 1658.4 1961.9 1627.5 1978.1 1633.4 1943.7 1608.4 1919.3 1643 1914.3 1658.4 1883"/>
    <polygon class="st0" points="1373.8 1883 1389.2 1914.3 1423.8 1919.3 1398.8 1943.7 1404.7 1978.1 1373.8 1961.9 1342.9 1978.1 1348.8 1943.7 1323.8 1919.3 1358.3 1914.3 1373.8 1883"/>
    <path class="st0" d="M2243.9,1240.1c-3.2-1.8-9.5-4.1-20.1-7.1.5-.2,1-.2,1.5-.2,1.8.1,3.5.2,5.3.3-.6-1-1.9-1.6-3.2-1.4-1.4-1-2.9-2.7-2-4.1,1.2.6,3-.2,3.1-1.5-2.1,0-4.1-.6-6-1.4l1.2-2.6,6.2-1c-3.1-.7-6-2.2-8.3-4.3-.7-.6-1.3-1.9-.3-2.3.2,0,.3,0,.5-.1h3c-.2-1.3-1.6-2-2.9-2.3-1.3-.2-2.7-.2-3.9-.8-1.2-.6-1.8-2.3-.8-3.1.5-.4,1.1-.4,1.7-.5,1.8-.2,3.6-.3,5.4-.4-.6-.7-1.5-1.2-2.3-1.7-2.2-1.2-4.4-2.5-6.6-3.7,2.9-.8,6-.9,8.8-.2l-6-3.9c1.5.5,3.3,0,4.2-1.3l-4.6-1,1.3-1.1c-1,.2-2,0-2.8-.6,1.3-.5,2.6-1,3.9-1.5-1.6,0-3.5-.4-4.4-1.6-1-1.2-.6-3.4,1-3.7.6-.1,1.2,0,1.8-.2,0,0-4.1-2.2-4.3-3.7-.3-1.6,1.7-3.2,3.2-2.5-.4-1-1.6-1.6-2.7-1.5.8,0,1.4-.9,1.2-1.7-.9,0-1.8-.2-2.5-.6-.3-.4,0-1,.5-1.2.4-.3,1-.4,1.3-.8.7-.8-.3-2-1.3-2.4-1-.5-2.2-.9-2.5-1.9l2.9-.3c.7-1-.3-2.2-1.4-2.9-1-.7-2.3-1.4-2.4-2.6l2.9-.4c-1.1-.9-2.1-1.8-3.2-2.7-.3-.2-.6-.5-.8-.8-.4-.5-.5-1.2-.6-1.8-.5-3.3-1-6.6-1.6-9.8-.1,3.6-.9,8.4-4.4,10.2l1.8.7c-.4,1.1-1.2,2.1-2.3,2.7.9.1,1.6.8,1.9,1.6-1.3,1.1-2.8,1.9-4.5,2.3,1,.4,1.9,1,2.7,1.8-.5.6-.7,1.4-2.7,2.1.8.4,2.4.7,3.6,1,0,0,0,0,0,0,.7-1,2.2-1.3,3.3-.8,0,.6-.8,1-1.4,1.1-.4,0-.9,0-1.3,0,0,0,.1,0,.2,0-.2,0-.4,0-.6,0-.1,0-.2,0-.3,0,0,0,0,0,0,0,0,0,0,0,0,0-2.2,0-3.7,1.5-5.4,3,1,0,2.8-.3,2.9.6.1.9-2.9,1.1-3.6,2.2.5-.1,1.8.4,2.5.9.4-.2.9-.4,1.4-.6.4-.1.8-.2,1.2-.3.4,0,1-.1,1.2,0,.1.1,0,.3-.3.4-.3,0-.6.1-.9.2-.5.1-.9.4-1.1.7-.2.3-.3.5-.3.8l-5.9-1.3,1.7-1.5c-1.3.3-2.7,0-3.7-.8,1.7-.7,3.5-1.3,5.2-2-2.2,0-4.6-.5-5.9-2.1-1.3-1.6-.7-4.5,1.4-5,.8-.2,1.7,0,2.4-.3,0,0-5.4-2.9-5.8-5-.4-2.1,2.2-4.2,4.3-3.3-.5-1.3-2.1-2.2-3.6-2,1.1-.1,1.9-1.2,1.6-2.2-1.2,0-2.4-.2-3.4-.8-.4-.5,0-1.3.6-1.6s1.3-.5,1.7-1.1c.9-1.1-.4-2.6-1.8-3.2-1.3-.6-3-1.2-3.3-2.5l3.8-.3c.9-1.3-.4-3-1.8-3.9-1.4-.9-3.1-1.9-3.1-3.5l3.9-.6c-1.4-1.2-2.9-2.4-4.3-3.6-.4-.3-.8-.6-1-1-.5-.7-.6-1.5-.8-2.4-.7-4.4-1.4-8.8-2.1-13.1-.2,4.9-1.2,11.3-5.9,13.6l2.4,1c-.5,1.5-1.6,2.8-3.1,3.6,1.2.2,2.2,1,2.5,2.1-1.7,1.4-3.8,2.5-6,3.1,1.3.6,2.6,1.4,3.6,2.3-.7.7-.9,1.9-3.7,2.7,1,.5,3.2.9,4.8,1.4,0,0,0,0,0,0,.9-1.3,3-1.8,4.4-1.1,0,.8-1,1.4-1.9,1.4-.6,0-1.1,0-1.7,0,0,0,.2,0,.2.1-.3,0-.5,0-.8,0-.2,0-.3,0-.5,0,0,0,0,0,0,0,0,0,0,0,0-.1-2.9,0-4.9,2-7.1,4,1.3,0,3.7-.4,3.8.9.1,1.2-3.8,1.5-4.9,2.9.7-.1,2.4.5,3.3,1.2.5-.3,1.2-.6,1.9-.8.5-.2,1.1-.3,1.6-.4.5-.1,1.3-.2,1.6.1.2.2,0,.4-.4.5-.4.1-.8.2-1.2.3-.7.2-1.2.5-1.5.9-.3.4-.4.8-.5,1.1,0,.2,0,.4,0,.6,0,.3.3.5.4.8.1.3.1.6-.2.8-.8-.7-1.5-1.5-2-2.3-.5.3-1.1.6-1.6.9l-5.8-1.2,2.2-1.9c-1.7.4-3.5,0-4.9-1.1,2.3-.9,4.6-1.7,6.8-2.6-2.9,0-6.1-.6-7.8-2.8-1.7-2.1-1-5.9,1.8-6.6,1-.2,2.2,0,3.2-.4,0,0-7.1-3.8-7.6-6.5-.5-2.8,2.9-5.6,5.7-4.3-.7-1.7-2.7-2.9-4.7-2.6,1.4-.2,2.5-1.6,2.1-2.9-1.6,0-3.2-.3-4.5-1.1-.6-.7,0-1.7.8-2.1.8-.5,1.7-.7,2.3-1.4,1.1-1.5-.6-3.4-2.3-4.3-1.7-.8-3.9-1.6-4.4-3.3l5-.5c1.2-1.7-.6-3.9-2.4-5.1s-4.1-2.5-4.1-4.6l5.1-.8c-1.9-1.6-3.8-3.1-5.6-4.7-.5-.4-1-.8-1.4-1.3-.7-.9-.8-2-1-3.1-.9-5.8-1.8-11.5-2.8-17.3-.2,6.4-1.6,14.8-7.7,17.9l3.1,1.3c-.6,2-2.1,3.7-4,4.8,1.5.3,2.9,1.4,3.3,2.8-2.2,1.9-4.9,3.3-7.8,4.1,1.8.7,3.4,1.8,4.7,3.1-.9,1-1.2,2.5-4.8,3.6,1.3.7,4.3,1.2,6.3,1.8,0,0,0,0,0,0,1.2-1.7,3.9-2.4,5.8-1.4,0,1.1-1.3,1.8-2.5,1.9-.7,0-1.5,0-2.3,0,.1,0,.2,0,.3.1-.4,0-.7,0-1,0-.2,0-.4,0-.6.1,0,0,0,0,0,0-.4.5-1.2.9-1.8,1-.1,0-.2.1-.3.2-.7.4-1.7.7-2.4.4.8-.5,1.8-.5,2.7-.5,0,0,0,0,0,0,.6-.4,1.2-.8,1.8-1,0,0,0,0,.1-.1-3.8,0-6.4,2.6-9.4,5.3,1.7,0,4.8-.5,5,1.1.2,1.6-5,1.9-6.4,3.9.9-.2,3.1.7,4.4,1.5.6-.4,1.5-.8,2.4-1,.7-.2,1.4-.4,2.2-.5.7-.1,1.7-.2,2.1.1.2.3-.1.6-.6.7-.5.2-1.1.2-1.6.3-.9.2-1.6.7-1.9,1.2-.4.5-.5,1-.6,1.5,0,.3-.1.5,0,.8,0,.4.4.7.5,1.1.2.4.2.8-.3,1-1.1-.9-1.9-1.9-2.6-3-1.8,1-4.3,2.3-6.2,4.1h-.4c0,0,2.8-2.5,2.8-2.5-2.1.5-4.5,0-6.2-1.3,2.9-1.1,5.8-2.2,8.6-3.3-3.7,0-7.7-.8-9.8-3.5-2.2-2.7-1.2-7.5,2.3-8.3,1.3-.3,2.8,0,4-.5,0,0-9-4.8-9.6-8.3-.6-3.5,3.7-7.1,7.1-5.5-.8-2.2-3.5-3.6-5.9-3.3,1.8-.2,3.1-2.1,2.6-3.7-2,0-4-.4-5.6-1.4-.7-.8,0-2.1,1-2.7,1-.6,2.2-.9,2.9-1.8,1.4-1.9-.7-4.3-2.9-5.4-2.2-1-5-2-5.6-4.2l6.4-.6c1.5-2.2-.7-5-3-6.5-2.3-1.5-5.2-3.2-5.2-5.8l6.5-1c-2.4-2-4.8-4-7.1-5.9-.6-.5-1.3-1.1-1.7-1.7-.8-1.1-1.1-2.6-1.3-3.9-1.2-7.3-2.3-14.6-3.5-21.8-.3,8.1-2.1,18.7-9.7,22.6l3.9,1.6c-.8,2.5-2.7,4.7-5.1,6,2,.3,3.6,1.7,4.2,3.5-2.8,2.4-6.2,4.2-9.9,5.2,2.2.9,4.3,2.3,6,3.9-1.1,1.2-1.5,3.1-6.1,4.6,1.7.9,5.4,1.5,7.9,2.3,0,0,0,0,0-.1,1.5-2.2,4.9-3,7.4-1.7,0,1.4-1.7,2.3-3.2,2.4-.9,0-1.9,0-2.9,0,.1,0,.3.1.4.2-.4,0-.9-.1-1.3-.1-.3,0-.5,0-.8.2,0,0,0,0,0,0-.5.7-1.5,1.1-2.3,1.2-.1,0-.3.2-.4.2-.9.5-2.1.9-3.1.5,1-.7,2.3-.6,3.5-.7,0,0,0,0,0,0,.8-.5,1.5-1,2.3-1.2,0,0,0-.1.1-.2-4.8,0-8.1,3.2-11.9,6.7,2.2,0,6.1-.6,6.4,1.4.2,2-6.4,2.4-8.1,4.9,1.2-.2,3.9.8,5.5,1.9.8-.5,1.9-1,3.1-1.3.9-.2,1.8-.5,2.7-.6.9-.2,2.2-.3,2.6.2.3.3-.1.7-.7.9-.6.2-1.3.3-2,.4-1.2.3-2,.9-2.5,1.5-.5.6-.6,1.3-.8,1.9,0,.3-.1.7,0,1,0,.5.5.9.7,1.3.2.4.2,1-.4,1.3-1.4-1.2-2.4-2.5-3.3-3.8-3,1.6-7.5,3.9-9.6,7.4,0,0,6.9-6.4,6.4,1.6-4.3,1.3-6.7,5.1-10.6,7.7,3.7,1.8,3.3,2.9,7.4,3.8-6.4,2.5-7.4,4.1-12.1,8.9,3-2,6.3-3.2,9.9-3.9s7.7-.5,9.5,2.5c-3.3,2.7-4.8,3.2-9,2.1-2.3,1.4-4.8,2.7-6.9,4.1-27.8-28.7-50.5-57.5-63.8-77.1-32.8-48.4-49.2-19.5-69.4,6.2-20.3,25.8-34.3,7.8-50-16.4-15.6-24.2-52.3-86.6-91.3-142.8-39-56.2-72.6.8-102.2,29.6-29.6,28.9-43.7,23.4-60.1,5.5-16.4-17.9-62.8-70.8-95.6-109.5-32.8-38.6-45.1-12.8-62,11.7-17,24.6-30.4,28.1-39.2,19.3-1.6-1.6-3.7-3.7-5.9-6-13.5-13.7-35.6-13.8-49.3-.2-32.1,32.1-87.1,86.8-112.7,111.6-37.5,36.3-73.7,92.5-122.9,43.3-32-32-130.7,50.9-224,130.7-1.5-.5-2.8-1.3-3.8-2.4-1.9-2.4-1.1-6.6,2.1-7.4,1.2-.3,2.5,0,3.6-.5,0,0-8-4.3-8.6-7.4-.5-3.1,3.3-6.3,6.4-4.9-.8-1.9-3.1-3.2-5.3-3,1.6-.2,2.8-1.8,2.3-3.3-1.8,0-3.6-.4-5-1.3-.7-.7,0-1.9.9-2.4.9-.5,2-.8,2.6-1.6,1.3-1.7-.6-3.9-2.6-4.8-2-.9-4.4-1.8-5-3.7l5.7-.5c1.4-2-.6-4.4-2.7-5.8-2.1-1.3-4.6-2.8-4.7-5.1l5.8-.9c-2.1-1.8-4.2-3.5-6.4-5.3-.6-.5-1.1-.9-1.5-1.5-.7-1-1-2.3-1.1-3.5-1-6.5-2.1-13-3.1-19.5-.3,7.2-1.8,16.7-8.7,20.1l3.5,1.4c-.7,2.2-2.4,4.2-4.5,5.4,1.7.3,3.3,1.5,3.7,3.1-2.5,2.1-5.6,3.7-8.8,4.6,2,.8,3.8,2,5.4,3.5-1,1.1-1.3,2.8-5.4,4.1,1.5.8,4.8,1.4,7.1,2,0,0,0,0,0,0,1.3-1.9,4.4-2.7,6.6-1.6,0,1.3-1.5,2.1-2.8,2.1-.8,0-1.7,0-2.5,0,.1,0,.2.1.3.2-.4,0-.8,0-1.2-.1-.2,0-.5,0-.7.1,0,0,0,0,0,0-.5.6-1.3,1-2.1,1.1-.1,0-.2.1-.4.2-.8.5-1.9.8-2.7.4.8-.6,2-.5,3.1-.6,0,0,0,0,0,0,.7-.4,1.3-.9,2.1-1.1,0,0,0-.1.1-.2-4.3,0-7.2,2.9-10.6,5.9,2,0,5.5-.5,5.7,1.3s-5.7,2.2-7.2,4.4c1-.2,3.5.7,4.9,1.7.7-.5,1.7-.9,2.8-1.2.8-.2,1.6-.4,2.4-.6.8-.2,2-.2,2.3.2.3.3-.1.6-.7.8s-1.2.2-1.8.4c-1,.3-1.8.8-2.2,1.3-.4.5-.5,1.1-.7,1.7,0,.3-.1.6,0,.9,0,.4.4.8.6,1.2.2.4.2.9-.3,1.2-1.2-1.1-2.2-2.2-3-3.3-2.7,1.4-6.7,3.4-8.5,6.6,0,0,6.1-5.7,5.7,1.4-3.9,1.1-6,4.6-9.5,6.9,3.3,1.6,3,2.6,6.6,3.4-5.7,2.2-6.6,3.7-10.8,7.9,2.7-1.8,5.6-2.8,8.8-3.4,3.2-.6,6.9-.4,8.5,2.2-2.9,2.4-4.3,2.8-8.1,1.9-3.7,2.2-8,4.1-9.5,6.8,1.9,0,6-1.5,7.7-.7,1.7.8.5,2.1-.5,3.6-1.4,2.2-7,5.2-7,5.2.4.3.8.4,1.2.6-2.6,0-5.4-.7-6.9-2.6-1.6-2-.9-5.6,1.7-6.2,1-.2,2.1,0,3-.4,0,0-6.7-3.6-7.1-6.2-.5-2.6,2.8-5.3,5.3-4.1-.6-1.6-2.6-2.7-4.4-2.5,1.3-.1,2.3-1.5,1.9-2.7-1.5,0-3-.3-4.2-1.1-.5-.6,0-1.6.8-2,.7-.4,1.6-.7,2.2-1.3,1.1-1.4-.5-3.2-2.2-4-1.6-.8-3.7-1.5-4.1-3.1l4.7-.4c1.1-1.6-.5-3.7-2.2-4.8-1.7-1.1-3.8-2.4-3.9-4.3l4.8-.7c-1.8-1.5-3.5-2.9-5.3-4.4-.5-.4-.9-.8-1.3-1.3-.6-.9-.8-1.9-1-2.9-.9-5.4-1.7-10.8-2.6-16.3-.2,6-1.5,13.9-7.2,16.8l2.9,1.2c-.6,1.9-2,3.5-3.8,4.5,1.5.2,2.7,1.3,3.1,2.6-2.1,1.8-4.6,3.1-7.4,3.9,1.7.7,3.2,1.7,4.5,2.9-.8.9-1.1,2.3-4.5,3.4,1.2.7,4,1.1,5.9,1.7,0,0,0,0,0,0,1.1-1.6,3.7-2.2,5.5-1.3,0,1-1.2,1.7-2.4,1.8-.7,0-1.4,0-2.1,0,0,0,.2,0,.3.1-.3,0-.7,0-1,0-.2,0-.4,0-.6.1,0,0,0,0,0,0-.4.5-1.1.9-1.7.9-.1,0-.2.1-.3.2-.7.4-1.6.6-2.3.3.7-.5,1.7-.4,2.6-.5,0,0,0,0,0,0,.6-.3,1.1-.7,1.7-.9,0,0,0,0,0-.1-3.6,0-6,2.4-8.8,5,1.6,0,4.6-.4,4.7,1.1.2,1.5-4.7,1.8-6,3.6.9-.2,2.9.6,4.1,1.4.6-.4,1.4-.7,2.3-1,.7-.2,1.3-.3,2-.5.7-.1,1.6-.2,2,.1.2.2-.1.5-.6.7s-1,.2-1.5.3c-.9.2-1.5.6-1.8,1.1-.3.5-.5.9-.6,1.4,0,.2-.1.5,0,.7,0,.3.4.7.5,1s.1.7-.3,1c-1-.9-1.8-1.8-2.5-2.8-2.2,1.2-5.6,2.9-7.1,5.5,0,0,5.1-4.8,4.8,1.2-3.2.9-5,3.8-7.9,5.7,2.8,1.4,2.5,2.1,5.5,2.9-4.3,1.7-5.4,2.9-8.2,5.7-1.2-.5-2.6-1.1-2.9-2.2l3.4-.3c.8-1.2-.4-2.7-1.6-3.5-1.2-.8-2.8-1.7-2.8-3.1l3.5-.5c-1.3-1.1-2.6-2.1-3.9-3.2-.3-.3-.7-.6-.9-.9-.4-.6-.6-1.4-.7-2.1-.6-3.9-1.3-7.9-1.9-11.8-.2,4.4-1.1,10.1-5.3,12.2l2.1.9c-.4,1.4-1.4,2.5-2.8,3.3,1.1.2,2,.9,2.3,1.9-1.5,1.3-3.4,2.2-5.4,2.8,1.2.5,2.3,1.2,3.3,2.1-.6.7-.8,1.7-3.3,2.5.9.5,2.9.8,4.3,1.2,0,0,0,0,0,0,.8-1.2,2.7-1.6,4-.9,0,.8-.9,1.3-1.7,1.3-.5,0-1,0-1.5,0,0,0,.1,0,.2,0-.2,0-.5,0-.7,0-.1,0-.3,0-.4,0,0,0,0,0,0,0,0,0,0,0,0,0-2.6,0-4.4,1.8-6.4,3.6,1.2,0,3.3-.3,3.4.8.1,1.1-3.4,1.3-4.4,2.7.6-.1,2.1.4,3,1,.4-.3,1-.5,1.7-.7.5-.1,1-.2,1.5-.3.5,0,1.2-.1,1.4,0,.2.2,0,.4-.4.5s-.7.1-1.1.2c-.6.2-1.1.5-1.3.8-.3.3-.3.7-.4,1,0,.2,0,.4,0,.5,0,.2.3.5.4.7s.1.5-.2.7c-.8-.6-1.3-1.3-1.8-2-1.6.9-4.1,2.1-5.2,4,0,0,3.7-3.5,3.5.9-2.4.7-3.6,2.8-5.7,4.2,2,1,1.8,1.6,4,2.1-3.5,1.4-4,2.2-6.6,4.8,1.6-1.1,3.4-1.7,5.3-2.1,1.9-.4,4.2-.2,5.2,1.3-1.8,1.4-2.6,1.7-4.9,1.1-2.2,1.3-4.8,2.5-5.8,4.1,1.2,0,3.7-.9,4.7-.4,1,.5.3,1.3-.3,2.2-.9,1.3-4.3,3.2-4.3,3.2,1.3.8,2.1.9,3,1.1.9.2,1.9,1.1,1.4,1.8-3-.2-6,1-8,3.1,1.7-.3,3.5.1,4.9,1.1.3.2.4.5.4.8-.1.7-1.1.7-1.8.7-1.8,0-3.6.8-4.7,2.1,2.7-1.2,6.3.2,7.3,2.7-2.2,2.2-4,4.9-6.4,6.8-.5.4-.3,1.3.4,1.3.5,0,1,.2,1.7.6-1,1.2-2.6,2-4.2,2.3,2.3,1.2,5,1.9,7.6,1.9-3.1,2.5-6.6,4.5-10.3,5.9.7,1.8,2.1,3.4,3.9,4.4.5.2,1,.5,1.3.8.8.9.2,2.5-.9,3.1s-2.5.7-3.9.7c2.1.2,4.1.9,5.7,2.1l-3.9,3.9c1.4-.4,3.4-.4,4.8.3-55.1,4.8-110.2,10.6-165.3,17.7v5.4l888.6,2.7,888.6-2.7v-5.4c-53.6-6.8-107.2-12.4-160.8-17.1ZM2202.1,1172.6c-.4.2-.9.4-1.4.2.4-.3,1-.3,1.6-.3,0,0,0,0,0,0,0,0-.1,0-.2.1ZM2173.9,1147.9c-.6.3-1.3.5-1.9.3.6-.4,1.4-.4,2.1-.4,0,0,0,0,0,0,0,0-.2,0-.3.1ZM807.5,1157.8c-.5.3-1.1.5-1.7.2.5-.4,1.2-.3,1.9-.4,0,0,0,0,0,0,0,0-.2,0-.2.1ZM2089.6,1139.2c.6-.3,1.2-.5,1.9-.5.2,0,.3,0,.5,0,.2,0,.3.2.4.3.3.3.6.6.8,1,.2.9.7,1.9,1.4,2.6.2.2.5.4.7.7.1.2.1.5.1.7,0,.5,0,1-.5,1.2-.2,0-.4,0-.7.1s-.3.1-.4.1c-.3,0-.5-.2-.6-.4-.4-.6-.2-1.4-.2-2.1,0-.8-.6-1.5-1.1-2.2-.3-.4-.6-.7-.9-1-.4-.3-.9-.5-1.3-.4ZM2135.7,1161.6c.5-.2,1-.4,1.5-.4.1,0,.2,0,.4,0,.1,0,.2.1.3.2.2.2.5.5.6.8.2.7.6,1.5,1.1,2,.2.2.4.3.5.6,0,.2,0,.4.1.6,0,.4,0,.8-.4.9-.2,0-.3,0-.5,0-.1,0-.2,0-.3,0-.2,0-.4-.1-.5-.3-.3-.5-.1-1.1-.2-1.7,0-.6-.5-1.2-.9-1.7-.2-.3-.4-.6-.7-.8-.3-.2-.7-.4-1.1-.3ZM2161.5,1179.9c1.1-.2,2.2-.4,2.8,0,1.1.6.4,1.4-.3,2.4-.4.6-1.2,1.2-2,1.8-1.1-1.2-1.5-3-.5-4.2ZM2179.3,1216.1c.1.3.1.6-.2.8-1-.9-1.8-1.9-2.4-2.9,0-.1,0-.2.1-.3.8.3,1.7.3,2.6,0-.2.3-.3.7-.4,1.1,0,.2,0,.4,0,.6,0,.3.3.5.4.8ZM2177.7,1184.7c0,.3,0,.6-.3.7-.1,0-.3,0-.4,0,0,0-.2,0-.3,0-.2,0-.3-.1-.4-.2-.2-.4,0-.9-.1-1.3,0-.5-.4-.9-.7-1.3-.2-.2-.3-.4-.6-.6-.2-.2-.5-.3-.8-.2.4-.2.7-.3,1.1-.3,0,0,.2,0,.3,0,.1,0,.2,0,.3.2.2.2.3.4.5.6.1.6.4,1.1.9,1.5.1.1.3.3.4.4,0,.1,0,.3,0,.4ZM2180.9,1212.7c.3-.3.5-.6.7-1,.4,0,.8,0,1,.2.2.2,0,.4-.4.5-.4.1-.8.2-1.2.3ZM2193.5,1196.4c.6,0,1.1-.1,1.4,0,.9.4.3,1-.2,1.8-.1.2-.3.4-.5.6-.6-.7-.9-1.6-.7-2.4ZM2206.1,1223.7c0,.2,0,.4-.2.6-.5-.4-.8-.8-1.1-1.2-.1-.6,0-1.1.3-1.7.4.2.8.3,1.2.3,0,0-.2,0-.2.1-.2.3-.3.6-.3.9,0,.1,0,.3,0,.4,0,.2.2.4.3.6ZM2204.9,1200.2c0,.2,0,.5-.2.5,0,0-.2,0-.3,0,0,0-.1,0-.2,0-.1,0-.2,0-.3-.2-.2-.3,0-.6-.1-1,0-.4-.3-.7-.5-1-.1-.2-.3-.3-.4-.5-.2-.1-.4-.2-.6-.2.3-.1.6-.2.9-.2,0,0,.1,0,.2,0,0,0,.1,0,.2.1.1.1.3.3.4.4.1.4.3.8.7,1.2.1.1.2.2.3.3,0,0,0,.2,0,.3ZM2207,1194c-.4-.5-.7-1.1-1.3-1.5,0,0,0,0,0,0,.2,0,.3,0,.4,0,1.3,0,2.5.9,2.6,2-.5.4-1.4,0-1.8-.4ZM2207,1187.5c.3-.2.7-.5,1.1-.4,0,0,.2,0,.2,0,0,0,0,.1,0,.2,0,0,0,0,0,0-.2,0-.4.2-.6.3,0,0-.2,0-.2.2,0,0,0,.1,0,.2,0,.1-.2.2-.4.3-.5.2-1.1.3-1.7.5.2-.2.4-.3.7-.4.3-.2.7-.6,1-.8ZM2206.2,1176.4s0,0,0,0c0,0,0,0,0,0,.2.4.4.8.5,1.2-.5-.2-1.1-.5-1.6-.6.3-.2.6-.4.9-.6ZM2204.6,1192s0,0,0,0c0,0-.1,0-.2,0-.4-.2-.9-.5-1-.9.5.1.8.6,1.2,1ZM2203.1,1187.4s0,0,0,0c0,0,0,0,0,0,.2.3.4.7.5,1-.4-.2-1-.4-1.4-.6.3-.2.6-.3.8-.5ZM2201.9,1216.2c.3-.1.6-.2.9-.2.3.6-.2,1.2-.7,1.6-.1,0-.2.1-.3.2-.2,0-.3,0-.5-.2l.6-1.4ZM2200.9,1180.2c0,0,0,.1,0,.2,0,.2.2.4.3.6,0,.2,0,.4-.2.6-.3-.3-.5-.5-.7-.8.2-.2.4-.4.6-.6ZM2199.7,1205c.2-.1.4-.2.7-.3.2,0,.5-.1.6,0,0,.1,0,.3-.2.4-.1,0-.3.1-.5.2-.3.1-.5.4-.6.7,0,.1,0,.3,0,.5-.2-.3-.5-.6-.6-1,.2-.2.4-.4.6-.5ZM2198.1,1183.3l-1.5-1c.7-.3,1.4-.3,1.5,1ZM2196.5,1181.8c0,0-.2.2-.3.2l-.6-.4c.3,0,.6.1.9.1ZM2194.2,1186.6c-.3.3-.6.5-.9.7,1.7.8,1.5,1.3,3.4,1.7-.3.1-.6.2-.8.4-1.4-.8-2.7-1.5-4.1-2.3.8-.2,1.6-.4,2.5-.5ZM2180.5,1176.4c-.6-.6-1-1.5-1.7-2,0,0,0,0,0,0,.2,0,.4,0,.6-.1,1.7,0,3.3,1.2,3.5,2.7-.7.5-1.8,0-2.4-.6ZM2180.5,1167.9c.4-.3.9-.7,1.5-.6,0,0,.2,0,.3.1,0,0,0,.2,0,.3,0,0,0,0-.1,0-.3.1-.6.2-.8.3-.1,0-.3.1-.3.2,0,0,0,.1,0,.2,0,.2-.3.3-.5.4-.7.2-1.5.4-2.2.6.2-.3.6-.4.9-.5.4-.3,1-.9,1.4-1.1ZM2179.3,1153s0,0,0,0c0,0,0,0,.1,0,.3.5.5,1,.7,1.6-.6-.3-1.5-.6-2.1-.8.4-.3.8-.5,1.3-.8ZM2177.3,1173.8s0,0,0,0c0,0-.2,0-.3-.1-.6-.2-1.2-.6-1.3-1.2.7.2,1.1.8,1.6,1.3ZM2175.2,1167.7s0,0,0,0c0,0,0,0,0,0,.3.4.5.9.6,1.4-.6-.3-1.3-.5-1.9-.7.4-.2.7-.5,1.1-.7ZM2174.9,1205.9c.4.7-.2,1.7-1,2.1-.6.3-1.2.6-1.8.9-.2,0-.5-.1-.7-.2.2-1.5,1.8-2.8,3.4-2.7ZM2172.5,1190.9c.1.2,0,.4-.2.5s-.4.2-.6.3c-.4.2-.6.5-.8.9-.1.4-.2.8-.2,1.1,0,.2,0,.4,0,.6,0,.3.2.5.2.8,0,.1,0,.2,0,.4-.2-.1-.4-.3-.5-.4-.3-.7-.7-1.3-.9-2,0-.8.7-1.5,1.4-1.9.3-.2.6-.3.9-.4.3-.1.7-.2.8.1ZM2171,1174.4c-.3.2-.6.4-.8.6-1.3-.7-2.6-1.5-3.9-2.2,1.9-.2,3.8.1,4.7,1.6ZM2168.2,1161.1c.2.4.4.9.4,1.9-.5.1-.9.4-1.3.6l-2.5-1.6c0,0,.3-.2.5-.4,1,0,2,0,2.9-.4ZM2165.1,1161.5c-.1.2-.3.3-.4.5l-1-.7c.4.2.9.2,1.4.2ZM2162.4,1167.8c2,1,1.9,1.6,4.3,2.2-1.3.5-2.2.9-2.9,1.4-1.7-.9-3.3-1.9-5-2.8,1.2-.3,2.4-.6,3.6-.8ZM2143.9,1143.1c.6-.4,1.2-.9,1.9-.7.1,0,.3,0,.3.2s.1.2,0,.3c0,0,0,0-.1,0-.4.2-.7.3-1.1.5-.2,0-.3.1-.4.3,0,0,0,.2,0,.3,0,.3-.4.4-.7.5-1,.3-1.9.6-2.9.8.3-.3.8-.6,1.2-.7.5-.4,1.3-1.1,1.8-1.5ZM2142.4,1123.7s0,0,.1,0c0,0,.1,0,.1.1.4.6.7,1.3.9,2-.8-.4-1.9-.8-2.8-1.1.5-.3,1.1-.7,1.6-1ZM2139.8,1150.9s0,0,0,0c.7.2,1.4.4,1.9.8.3,0,.5,0,.8-.2,2.2-.1,4.4,1.5,4.6,3.6-.9.7-2.4,0-3.1-.8-.8-.9-1.3-1.9-2.2-2.6,0,0,0,0,0,0-.7,0-1.5-.3-1.9-.8-.1,0-.2,0-.4-.1-.8-.3-1.6-.8-1.7-1.6.9.3,1.5,1.1,2.1,1.7ZM2137,1142.9s0,0,.1,0c0,0,0,0,.1,0,.4.6.6,1.2.8,1.8-.8-.4-1.7-.7-2.5-1,.5-.3,1-.6,1.5-.9ZM2128,1134.5l-2.6-.6c1-.5,2.1-.6,2.6.6ZM2131.5,1151.8c-1.1.9-2,1.4-2.8,1.7-2-1.1-3.9-2.2-5.9-3.4.4,0,.8-.3,1.2-.3,2.8-.5,6.1-.4,7.5,2ZM2123.2,1147c-1.1.6-2,1.1-2.9,1.8-.5-.3-1-.6-1.5-.9,1.4-.4,2.9-.7,4.4-.9ZM2100.1,1115.8c.7-.5,1.5-1.1,2.4-.9.2,0,.3,0,.4.2.1.1.1.3,0,.4,0,0-.1,0-.2.1-.5.2-.9.4-1.4.6-.2,0-.4.2-.5.4,0,.1,0,.2,0,.3,0,.3-.5.5-.8.6-1.2.4-2.4.7-3.7,1,.4-.4,1-.7,1.6-.9.6-.4,1.7-1.4,2.2-1.9ZM2098.1,1091.2s0,0,.1,0c0,0,.1,0,.2.1.5.8.9,1.7,1.2,2.6-1.1-.6-2.4-1-3.6-1.4.7-.4,1.4-.9,2.1-1.3ZM2094.8,1125.7s0,0,0,0c.8.3,1.7.5,2.5,1,.3,0,.7,0,1-.2,2.8-.2,5.5,1.9,5.9,4.5-1.2.9-3,.1-4-1-1-1.1-1.6-2.5-2.8-3.3,0,0,0,0,0,0-.9,0-1.9-.4-2.5-1-.2,0-.3-.1-.5-.2-1-.4-2-1.1-2.2-2,1.1.3,1.8,1.4,2.6,2.2ZM2091.3,1115.6s0,0,.1,0c0,0,.1,0,.2.1.5.7.8,1.5,1,2.3-1-.5-2.2-.9-3.2-1.2.6-.4,1.2-.8,1.9-1.2ZM2073.3,1135.7c1.3.7,1.1,1.6.4,2.6-.9-.9-1.9-1.9-2.8-2.8.9,0,1.8,0,2.4.2ZM1837.2,1190.3l106.2-117.7c8-8.8,26.2-21.4,21.5,9.5-3.8,25-3.2,56.5,3.9,74.5,5.4,13.8,19.3,28.6,35.4,39.2,43.4,28.7,5.5,28.7-9.7,28.7h-142c-38.2,0-27.1-21-15.2-34.2ZM1694.7,960.3c35.1-46.8,60.9-39.8,57-20.3-3.9,19.5,10.1,101.4,39,148.3,28.9,46.8,13.3,50.7-10.9,29.7-24.2-21.1-53.8-46.8-85.1-85.1-31.2-38.2-14.9-52.7,0-72.6ZM1221.7,1053.1c35.6-38.9,120.7-131.7,140.5-151.9,25.2-25.8,35.7-33.9,34-9.9-1.8,24,19.9,38-7,74.4-27,36.2,0,30.4-9.4,52.1-1.4,3.3-2.9,6.5-4.4,9.5-3.1,6.3-11.8,26,9.9,8.1,12.1-10.1,26.3-22,35.5-33.4,13-16,19.2-45.9,21.8-64.7.4-3,4.7-3.1,5.4-.2l2.8,13.5c.7,3.3,2.8,9.3,6.5.6l23.8-57.1c2-4.8,9-4.2,10.1.9l4.3,19.5c2.3,11.2,6.8,3.7,7.2-.4,1.1-10.5,2.6-23.4,4.1-36.2,3.5-28.7,14.6-9.4,15.2,9.4.6,18.7,22.2,44.5,32.8,58,10.5,13.5,18.7,21.1-1.7,38.6-20.5,17.6-6.5,32.8-49.8,72.6-43.3,39.8-22.2,73.7,12.9,110,4.1,4.3,8.5,8.8,13.5,13,66.7,56.6,8.9,43.7-26.3,43.7h-139.3c-23.1,0-19.4-25.5-2.3-33.7l5.8-3.1c4.5-2.4,7.2-7.3,6.9-12.4l-.7-10.7c-.7-10,1.4-20,6.1-28.9l55.6-105.9c1.7-3.3-2.7-6.3-5.1-3.4l-49.9,60.2c-2.9,3.5-8.2,3.9-11.5.7l-.2-.2c-3.7-3.4-9.5-2.8-12.4,1.3l-43.5,63.2c-7.7,11.2-23.9,12.3-33,2.1l-25.6-28.6,21.1-36.8c35.8-59.4-6.1-16.6-12.9-9.8l-26.4,26.4-14.3-16c-8.8-9.9-8.8-24.8.2-34.6ZM898.6,1130c.6-.5,1.4-1,2.1-.8.1,0,.3,0,.4.2,0,.1.1.3,0,.4,0,0-.1,0-.2,0l-1.3.5c-.2,0-.4.2-.5.3,0,0,0,.2,0,.3,0,.3-.4.4-.7.5-1.1.4-2.2.7-3.3.9.4-.4.9-.7,1.4-.8.5-.4,1.5-1.3,2-1.7ZM896.9,1108.1s0,0,.1,0c0,0,.1,0,.2.1.5.7.8,1.5,1,2.3-.9-.5-2.2-.9-3.2-1.2.6-.4,1.2-.8,1.9-1.2ZM893.9,1138.8s0,0,0,0c.8.3,1.5.5,2.2.9.3,0,.6,0,.9-.2,2.5-.1,4.9,1.7,5.2,4-1.1.8-2.7,0-3.5-.9-.9-1-1.4-2.2-2.5-2.9,0,0,0,0,0,0-.8,0-1.7-.4-2.2-.9-.1,0-.3,0-.4-.2-.9-.4-1.8-.9-2-1.8,1,.3,1.6,1.2,2.4,1.9ZM894.5,1155c0,.4,0,.9-.4,1.1-.2,0-.4,0-.6,0-.1,0-.3.1-.4.1-.2,0-.5-.1-.6-.3-.4-.6-.1-1.3-.2-1.9,0-.7-.5-1.3-1-1.9-.2-.3-.5-.7-.8-.9-.3-.2-.8-.4-1.2-.3.5-.2,1.1-.4,1.7-.5.1,0,.3,0,.4,0,.2,0,.3.1.4.3.3.3.5.5.7.9.2.8.6,1.7,1.3,2.3.2.2.5.4.6.6,0,.2.1.4.1.6ZM890.8,1129.8s0,0,.1,0c0,0,.1,0,.1.1.4.6.7,1.3.9,2.1-.9-.4-1.9-.8-2.8-1.1.6-.3,1.1-.7,1.7-1ZM884.3,1164.6c.4-.2.9-.4,1.3-.6.4-.2,1.1-.2,1.3.2.2.3,0,.6-.4.8-.3.2-.6.2-.9.4-.6.3-1,.8-1.2,1.3-.2.5-.3,1.1-.4,1.7,0,.3,0,.6,0,.9,0,.1,0,.2,0,.3-.2.2-.5.4-.7.6-.4-.9-.8-1.8-1.2-2.8,0-1.2,1-2.2,2.1-2.7ZM868.6,1157.3c1.4.6,2.5.8,3.6,1.1,1.5.4,3.2,1.8,2.4,3-2.7-.2-5.4.4-7.9,1.4l-1.8-.4,2.1-1.8c-1.6.3-3.3,0-4.6-1,2.1-.8,4.1-1.6,6.2-2.3ZM870,1169.2l-3.4-2.3c1,.3,2,.8,2.9,1.4.3.2.4.5.5.8ZM871.6,1178.9s0,.1-.1.2c-3.1-1.8-6.2-3.5-9.4-5.3,3.9-.4,8.2,1.7,9.5,5.2ZM868.2,1182.5c-.4.4-.7.9-1.1,1.3-1.2,1-2.4,2-3.6,3-.7-1.2-.8-2.6.3-3.4.7-.6,1.8-.7,2.8-.8.6,0,1.1,0,1.7-.1ZM1131.3,1028.5s-57.2,20.2-35.2,55.1c22,34.9,74.4,97-48.7,116.6-102.3,16.3-158.3,19.2-180.1,19.6h-9.1c76.1-48.4,223.8-205.4,273-191.3ZM846.9,1149.2c.5-.4,1.1-.8,1.8-.7.1,0,.2,0,.3.2s0,.2,0,.3c0,0,0,0-.1,0-.3.1-.7.3-1,.4-.2,0-.3.1-.4.3,0,0,0,.2,0,.3,0,.2-.4.4-.6.5-.9.3-1.8.6-2.7.8.3-.3.7-.6,1.2-.6.4-.3,1.2-1.1,1.7-1.4ZM845.5,1130.8s0,0,.1,0c0,0,0,0,.1.1.4.6.7,1.3.9,1.9-.8-.4-1.8-.8-2.7-1,.5-.3,1-.6,1.6-1ZM843,1156.5s0,0,0,0c.6.2,1.3.4,1.8.8.3,0,.5,0,.7-.2,2.1-.1,4.1,1.4,4.4,3.4-.9.6-2.2,0-3-.7-.7-.8-1.2-1.8-2.1-2.5,0,0,0,0,0,0-.7,0-1.4-.3-1.8-.8-.1,0-.2,0-.3-.1-.7-.3-1.5-.8-1.6-1.5.9.2,1.4,1,2,1.6ZM843.5,1170.1c0,.3,0,.8-.4.9-.2,0-.3,0-.5,0-.1,0-.2,0-.3,0-.2,0-.4-.1-.5-.3-.3-.5-.1-1.1-.2-1.6,0-.6-.5-1.1-.8-1.6-.2-.3-.4-.5-.7-.8-.3-.2-.6-.3-1-.3.4-.2.9-.3,1.4-.4.1,0,.2,0,.3,0,.1,0,.2.1.3.2.2.2.4.5.6.7.2.7.5,1.4,1.1,1.9.2.2.4.3.5.5,0,.2,0,.3,0,.5ZM840.4,1149s0,0,0,0c0,0,0,0,.1,0,.3.5.6,1.1.8,1.7-.7-.4-1.6-.7-2.4-.9.5-.3.9-.6,1.4-.9ZM840,1196.2c.6.9-.3,2.1-1.2,2.6-1,.5-2.1.8-3,1.5,0,0,0,0,0,0-.1.6-.6,1.2-1.1,1.5,0,0-.1.2-.2.3-.4.6-1.1,1.2-1.9,1.3.4-.7,1.3-1.1,2-1.5,0,0,0,0,0,0,.3-.5.6-1.1,1.1-1.5,0-.2,0-.5,0-.7.2-1.9,2.2-3.5,4.3-3.5ZM833.2,1208.1c0,.4-.5.6-1,.8-.5.2-1,.4-1.5.5-.2,0-.4,0-.5.1-.2-.6-.1-1.1.5-1.4.2,0,.4-.1.6-.1h1.9s0,0,0,0ZM837,1177.7c.1.2,0,.5-.3.7-.2.1-.5.2-.8.3-.5.2-.8.6-1,1.1-.2.5-.2.9-.3,1.4,0,.2,0,.5,0,.7,0,.3.2.7.3,1,0,.3,0,.7-.1,1-.7-1.1-1.2-2.3-1.6-3.5,0-1,.8-1.8,1.7-2.3.3-.2.7-.3,1.1-.5.4-.1.9-.2,1,.1ZM821.8,1161.4c.5-.3,1.2-.5,1.6-1,.7-.9-.2-2.1-1.3-2.7,1.9-1,3.9-1.8,6.1-2.2,2.7-.5,5.7-.3,7.1,1.8-2.5,2-3.6,2.4-6.7,1.6-2.4,1.4-5,2.7-6.7,4.2-.2,0-.4-.1-.6-.2-.4-.5,0-1.1.6-1.5ZM824,1172.7c.3,0,.5.1.8.2.9.3,2,1,2.1,1.8-.6-.4-1.9-1.1-2.9-2ZM826.9,1174.9c0,.1,0,.3,0,.4-.7,0-1.4,0-2.1,0,.2-.1.3-.3.5-.3.5-.1,1.1-.1,1.7-.2ZM826.6,1167c-.7,1.1-2.9,2.6-4.3,3.5,0,0,0,0,0,0-.3-1.9,2-3.8,3.9-3-.5-1.2-1.9-2-3.2-1.8.9,0,1.5-.9,1.4-1.7,1.1-.2,2.1-.2,2.7,0,1.4.7.4,1.7-.4,3ZM810.9,1190.9c0,.2,0,.5-.3.6-.1,0-.2,0-.4,0s-.2,0-.2,0c-.1,0-.3,0-.3-.2-.2-.3,0-.8-.1-1.2,0-.4-.3-.8-.6-1.2-.1-.2-.3-.4-.5-.5-.2-.2-.5-.2-.7-.2.3-.1.7-.2,1-.3,0,0,.2,0,.2,0,0,0,.2,0,.2.2.2.2.3.3.4.5.1.5.4,1,.8,1.4.1.1.3.2.4.4,0,.1,0,.3,0,.4ZM813.4,1175.7c.4-.3.8-.6,1.3-.5,0,0,.2,0,.2.1,0,0,0,.2,0,.2,0,0,0,0-.1,0-.3.1-.5.2-.8.3-.1,0-.2.1-.3.2,0,0,0,.1,0,.2,0,.2-.3.3-.4.3-.7.2-1.3.4-2,.6.2-.2.5-.4.9-.5.3-.2.9-.8,1.2-1ZM815.5,1183.9c-.6.5-1.6,0-2.2-.5-.5-.6-.9-1.3-1.5-1.8h0c.2,0,.4,0,.5-.1,1.5,0,3,1,3.2,2.4ZM812.3,1162.4s0,0,0,0c0,0,0,0,0,0,.3.4.5.9.6,1.4-.6-.3-1.3-.5-1.9-.7.4-.2.8-.5,1.1-.7ZM810.5,1181h0c0,0-.2,0-.2,0-.5-.2-1.1-.6-1.2-1.1.6.2,1,.7,1.4,1.2ZM808.6,1175.5s0,0,0,0c0,0,0,0,0,0,.3.4.4.8.6,1.3-.5-.3-1.2-.5-1.7-.7.3-.2.7-.4,1-.6ZM808.3,1209.9c.4.7-.2,1.5-.9,1.9-.7.4-1.6.6-2.1,1.1,0,0,0,0,0,0,0-.2,0-.3,0-.5.1-1.4,1.6-2.6,3.1-2.5ZM806.2,1232.2c-.9.7-1.8,1.3-2.7,1.9-.5-.4-.9-1.1-1.2-1.9-.1-.4-.3-.9-.4-1.4-.1-.5-.2-1.1,0-1.3.2-.2.4,0,.5.4.1.3.2.7.2,1,.2.6.5,1,.9,1.2.4.2.7.3,1.1.4.2,0,.4,0,.6,0,.3,0,.5-.2.8-.3ZM804.6,1196.7c.3-.1.5-.2.8-.3.3,0,.6-.1.8,0,0,.2,0,.4-.2.5-.2.1-.4.1-.6.2-.3.2-.6.5-.7.8-.1.3-.2.7-.2,1,0,.2,0,.4,0,.5,0,.2.1.5.2.7,0,.2,0,.5-.1.7-.5-.8-.9-1.7-1.2-2.6,0-.7.6-1.3,1.3-1.7ZM804.5,1214.1s0,0,0,0c0,0,0,.1-.1.2-.3.5-.8.9-1.4.9.3-.5.9-.8,1.5-1.1ZM800.9,1218.9c.1,0,.7-.4.7-.6.2-.1.4-.2.6-.3.2,0,.5-.1.7,0,.2,0,.4.3.4.5,0,.3-.4.5-.7.6-.4.1-.7.3-1.1.4-.2,0-.4.1-.6.1-.2,0-.4-.2-.4-.4,0-.2.2-.3.3-.4Z"/>
    <path class="st0" d="M2599.6,1987.2l1.4-4.6c-350.3-110.5-717.5-167.2-1085-167.9-367.5.7-734.7,57.4-1085,167.9l1.4,4.6c97.1-20.8,194.1-39.7,291.2-56.2,6.1,10.4,12.2,20.6,18.7,30.7,3.2,5,6.4,9.9,9.7,14.8-61.8,17.7-123,37.4-183.8,59.3l1.3,4.6c65.3-16.1,130.6-30.9,195.9-44.4,11.7,16.6,24.1,32.7,36.9,48.5-39.3,14.4-78.4,30-117.3,46.8l1.1,4.9c43.2-12.7,86.3-24.6,129.4-35.8,13,15.2,26.4,30.1,40.4,44.5,84.9,88.1,188.5,158,301.3,206.1,113.1,47.8,236,72.1,358.8,72.5,122.8-.5,245.6-24.8,358.8-72.6,112.8-48.1,216.3-118.1,301.2-206.1,14-14.4,27.5-29.3,40.5-44.6,43.1,11.3,86.1,23.2,129.3,35.9l1.1-4.9c-38.8-16.8-78-32.4-117.3-46.9,12.8-15.8,25.2-32,36.9-48.6,65.3,13.6,130.6,28.5,196,44.6l1.3-4.6c-60.8-21.9-122.1-41.6-184-59.4,10-14.9,19.5-30.1,28.5-45.6,97.1,16.5,194.2,35.4,291.3,56.3ZM1380.1,1864.1l136-1.7,136,1.6c45.3,2.1,90.6,4.8,135.9,6.4l134.7,9.9c-116.2,88.8-260.9,138.6-406.6,137.6-145.6,1-290.1-48.8-406.3-137.5l134.4-9.9c45.3-1.7,90.6-4.3,135.9-6.5ZM2149.8,2078.5c-84.5,81.4-183.8,147.1-292.2,190.7-108.2,44.1-224.8,66.9-341.5,66.5-233.8,1.4-465.5-93.2-633.7-257.2-47.4-46.1-89.9-97.4-126.5-152.8,72.2-11.8,144.5-22.2,216.9-30.9l67.9-6.7,14.9-1.6c56.6,52.3,122.6,94.5,193.7,125.1,84.1,35.7,175.5,53.9,266.9,54.3,91.3-.5,182.8-18.6,266.9-54.4,71.1-30.6,137.2-72.8,193.9-125.1l14.6,1.6,67.9,6.7c72.5,8.6,144.8,19.1,217.1,30.9-36.6,55.4-79.2,106.8-126.7,153Z"/>
  </g>
  <g id="text">
    <g>
      <path class="st0" d="M408.9,1361.7h85c37,0,74,9.1,102.2,33.2,28.2,24.2,46.8,63,46.4,122.1-.4,59.2-19.5,99.8-47.8,128-28.3,28.1-65.1,44.1-101.7,50-.2,74.1-.4,148.1-.6,222.2-27.9,7.5-55.7,15.2-83.5,23.3v-578.7ZM493.3,1611.8c25.8-3.1,42.2-9.5,51.7-23,9.4-12.8,11.9-32.8,12-62.8.1-30.1-2.1-51.2-11.5-64-9.4-12.8-25.8-18.2-51.8-17.2-.2,55.7-.3,111.3-.5,167Z"/>
      <path class="st0" d="M686.1,1361.7h194.5c-.2,23.8-.4,47.5-.7,71.3-36.5.9-73,1.9-109.4,3-.4,43.1-.7,86.1-1.1,129.2,26.2-2.1,52.4-4.1,78.7-6-.2,25.6-.5,51.1-.7,76.7-26.2,2.6-52.4,5.4-78.6,8.3-.4,45.1-.8,90.1-1.2,135.2,36.4-6,72.8-11.6,109.3-16.8-.2,23.8-.4,47.5-.7,71.3-64.8,10.8-129.4,23.2-193.8,37.2,1.2-169.8,2.5-339.6,3.7-509.4Z"/>
      <path class="st0" d="M901.3,1829.8c30.6-160.7,61.3-316.4,91.8-468.1h103.9c27.8,147.3,55.9,291.4,84.1,433.1-27.8,2.5-55.5,5.3-83.2,8.4-5-29.4-10-59-15-88.7-27.4,2.5-54.8,5.2-82.2,8.2-5.6,31.4-11.1,63-16.7,94.7-27.6,3.9-55.2,8-82.8,12.4ZM1048.5,1507.2c-.8-3.8-1.5-7.7-2.3-11.5-1.6,0-3.2.1-4.7.2-.8,3.9-1.6,7.8-2.5,11.7-8.6,47.6-17.2,95.4-25.8,143.7,19.5-1.7,38.9-3.2,58.4-4.7-7.7-46.2-15.5-92.6-23.2-139.4Z"/>
      <path class="st0" d="M1308.9,1361.7c-.3,49.4-.5,98.8-.8,148.1,1.1,0,2.1,0,3.2,0,1.3-2.3,2.7-4.7,4-7,23.9-47.5,47.8-94.4,71.6-141.1h82.7c-26.1,45.8-52.2,91.8-78.5,138.1,29.1,93.4,58.5,186.2,88,278.9-27.8.5-55.7,1.2-83.5,2.3-19.7-60.1-39.2-120.4-58.7-181.1-.8-2.8-1.6-5.7-2.3-8.5-.8,0-1.6,0-2.4,0-1.6,2.9-3.2,5.8-4.8,8.8-6.7,11.7-13.3,23.4-20,35.2-.3,50-.5,99.9-.8,149.9-28.6,1.7-57.2,3.7-85.7,6,1-143.2,2-286.4,3-429.7h85Z"/>
      <path class="st0" d="M1518.9,1778.3c.1-138.9.2-277.7.3-416.6h74.8c50.4,0,89.8,6.8,115.8,24.6,26.1,17.8,39.6,45.4,39.8,87.3,0,20.1-2.2,34.9-10.8,48.5-8.6,13.6-22,24.8-41.7,37.5,21.4,8.9,37.3,25.3,50.1,52.6,6.4,13.4,9.6,30.7,9.7,51.9.1,31.6-7.6,59.4-27.4,80.3-19.8,21-53.9,33.7-104.8,34.5-35.3-.7-70.5-.8-105.8-.6ZM1604.4,1533.5c7.1,0,23.7.7,37.9-6,14.2-6.7,25.2-20.2,25.2-49.2,0-29-11.2-42.7-25.4-49.6-14.2-6.9-30.8-6.3-37.9-6.4,0,37.1,0,74.1.1,111.2ZM1604.7,1717.8c7.1,0,23.8,1.4,38.1-5.7,14.3-7.1,25.3-23.3,25.2-57.5,0-34.1-11.2-50.8-25.5-58.4-14.3-7.6-30.9-6.6-38-6.6,0,42.7.1,85.4.2,128.2Z"/>
      <path class="st0" d="M1961.4,1799c-15.3-63-30.6-125.3-45.8-186.9-7.6-.4-15.3-.8-22.9-1.2.4,60.6.9,121.2,1.3,181.8-28.6-2.4-57.1-4.5-85.7-6.4-.8-141.6-1.6-283.1-2.5-424.7h85c101.6-.4,145.3,43.9,146,128.7.4,44.4-14.2,83.6-46.5,98.5,18.8,72.2,37.6,145.3,56.4,219.7-28.5-3.5-57-6.7-85.5-9.6ZM1892.2,1552.3c11.8.4,27.6,0,40.2-7.9,12.6-7.8,22.7-23.4,22.4-54.3-.3-30.9-10.6-47.8-23.3-56.3-12.7-8.5-28.4-9.2-40.3-9.4.3,42.6.6,85.2.9,127.8Z"/>
      <path class="st0" d="M2090,1361.7h194.5c.2,24.4.4,48.7.7,73.1-36.5-1-72.9-1.9-109.4-2.8.4,40.7.8,81.5,1.2,122.2,26.3,1.7,52.5,3.5,78.7,5.4.2,25.6.5,51.2.7,76.8-26.2-2.7-52.5-5.2-78.7-7.5.4,42.6.8,85.3,1.2,127.9,36.5,4.8,73,10.1,109.4,15.8.2,24.4.4,48.7.7,73.1-64.7-11.9-129.5-22.2-194.6-31-1.4-151-2.8-302-4.2-453Z"/>
      <path class="st0" d="M2457.2,1880.3c-21.8-5-43.7-9.8-65.6-14.4-27.1-173.5-54.4-341.4-81.9-504.3h78.7c12,87.4,23.9,176,35.8,265.9.6,5.6,1.1,11.3,1.7,16.9,2.1.3,4.2.5,6.3.8.7-5.5,1.5-11,2.2-16.5,11.4-87.6,22.9-176.6,34.4-267.1h61.4c12.5,93,25,187.5,37.3,283.6.8,6,1.6,12.1,2.4,18.1,2.1.3,4.2.6,6.3.9.5-5.9,1-11.8,1.5-17.7,10.9-93.5,21.8-188.4,32.8-285h78.7c-26,192.9-51.4,378.4-76.5,557.3-21.7-5.8-43.4-11.5-65.2-17-13.3-88.5-26.8-175.5-40.2-260.9-1.6-10.5-3.2-21.1-4.9-31.6-1-.1-2.1-.2-3.1-.3-1.5,10.1-3,20.3-4.5,30.4-12.6,81.7-25.1,161.9-37.6,240.8Z"/>
    </g>
    <text/>
    <g>
      <path class="st0" d="M1176.2,2033.2c-23.8,53.9-47.6,107.7-71.3,161.6-3.7,8.7-5.5,13.1-9.2,21.8-14-7-27.7-14.5-41.3-22.2,4.4-8.4,6.5-12.6,10.9-20.9,26.1-52.6,52.2-105.2,78.3-157.8-10.5-6-20.9-12.2-31.1-18.7,5-9.1,10.1-18.3,15.1-27.4,29.9,18.6,60.6,35.1,92.6,49.7-3.8,9.8-7.6,19.6-11.5,29.3-11-4.9-21.8-10.1-32.5-15.5Z"/>
      <path class="st0" d="M1228.3,2168c-7.4,23.5-14.8,47-22.3,70.5-2.7,9.1-4.1,13.7-6.8,22.8-14.5-5.4-28.9-11-43.3-16.9,3.4-8.9,5.1-13.3,8.5-22.1,21.2-57.9,42.3-115.9,63.5-173.8,3.1-9,4.7-13.5,7.8-22.4,14.8,6.2,29.7,11.9,44.8,17.1,38,12.6,45.7,46.3,37.5,82,0,.3,0,.4-.1.6-4.5,20.4-15.1,42-36.6,48.5.8,38,2.7,75.9,5.5,113.8-15.7-3.9-31.2-8.3-46.7-13.1-.3-34.2.1-68.3,1.3-102.4-5.3-1.8-8-2.8-13.3-4.7ZM1237.5,2138.8c3,1.1,4.6,1.6,7.6,2.7,20.4,8.1,30.7-9.5,35-26.5,0-.3.1-.4.2-.6,4.5-15.5,6.3-36.4-12.9-42.4-3.2-1.1-4.8-1.7-8-2.8-7.3,23.2-14.6,46.4-22,69.6Z"/>
      <path class="st0" d="M1340.6,2299.9c-15.1-3-30.1-6.2-45.1-9.7,30.3-72.7,57.6-146.5,81.9-221.4,15.5,2.9,31.2,5.4,46.9,7.3,3.2,79.3,9.5,158.4,18.9,237.2-15.1-1.2-30.2-2.7-45.3-4.4-.9-17.2-1.7-34.3-2.4-51.5-13.2-1.7-26.3-3.8-39.3-6.1-5.1,16.3-10.3,32.5-15.6,48.7ZM1366.1,2220.1c9.5,1.7,19.1,3.2,28.6,4.5-.5-23.2-.8-46.4-.9-69.6.4-12,.8-23.9,1.3-35.9-.5,0-.8-.1-1.3-.2-2.6,11.6-5.2,23.3-8.3,34.8-6.3,22.2-12.7,44.4-19.4,66.5Z"/>
      <path class="st0" d="M1580.4,2157.9c2,24.7,4,49.4,6,74.2,3.6,42.6-7.2,82.8-57.8,83.4-21.9.3-43.7,0-65.6-.9.6-9.6.9-14.3,1.5-23.9,2.7-62.1,5.5-124.2,8.2-186.4.3-9.6.4-14.4.7-23.9,16.9.8,33.9,1.1,50.8.7,43.3-1.5,53.5,42.1,56.3,76.8ZM1508.1,2113c0,56.9,0,113.9-.1,170.8,5.4,0,8.2,0,13.6,0,22.4.5,24.2-22.2,23.4-39-1.2-31.3-2.4-62.7-3.5-94-.3-14-2.3-38.6-22-37.7-4.5,0-6.8,0-11.3,0Z"/>
      <path class="st0" d="M1634.8,2069.8c1.4,9.5,2.1,14.2,3.4,23.7,9.8,61.3,19.5,122.6,29.3,183.9,1.7,9.4,2.5,14.1,4.2,23.5-15,2.6-30,5-45,7.1-.9-9.5-1.4-14.3-2.3-23.8-7.1-61.7-14.2-123.5-21.3-185.2-1.2-9.5-1.8-14.2-3.1-23.7,11.7-1.5,23.3-3.4,34.8-5.5Z"/>
      <path class="st0" d="M1705.7,2269.6c-12.1-60.8-24.2-121.7-36.3-182.5-2-9.3-3-14-5-23.3,11.7-2.7,23.4-5.6,35-8.9,19,30.1,39.1,59.3,60.3,87.9,6.2,8.8,12.5,17.6,17.7,27,.6-.2.9-.3,1.4-.5-3.6-9.9-7.4-19.7-10.6-29.8-7.5-24.8-14.9-49.5-22.4-74.3-2.9-9.1-4.3-13.6-7.2-22.7,10.9-3.9,21.6-7.9,32.4-12.1,3,9,4.5,13.5,7.5,22.5,20.3,58.3,40.7,116.5,61,174.8,3.3,8.9,4.9,13.4,8.2,22.3-12.8,5.1-25.7,10-38.7,14.5-26.1-31.1-50.8-63.2-74.2-96.3-6.1-9.1-11.9-18.1-17.1-27.7-.6.2-.8.2-1.4.4,3,10.1,6.3,20.2,8.9,30.4,7.1,29.3,14.2,58.6,21.4,87.9,2.4,9.2,3.6,13.8,6,23.1-14.2,3.9-28.5,7.5-42.8,10.8-1.7-9.4-2.5-14.1-4.3-23.5Z"/>
      <path class="st0" d="M1890.8,2097.5c17.9-9.7,35.5-20,52.8-30.8,19.3,34.9,38.6,69.8,57.9,104.7-7.4,4.7-11.1,6.9-18.5,11.4-7.1-4.5-10.5-6.8-17.5-11.4-.3.2-.4.3-.7.4-1.4,18.4-13,33.1-28.9,41.2-45.6,23.2-71.1-14.1-85.8-52.4-8.3-21.5-16.7-43-25-64.5-14.1-36.1-25.9-80.2,15.8-102.4,39.4-21,66.2,11.1,83.8,43.4.2.3.3.5.5.8-11.4,7.2-23,14.1-34.8,20.7-.3-.6-.4-.9-.7-1.5-5-10-17.4-42.7-34.8-33.3-16.8,9.1-2.4,36.6,2.8,48.1,11.4,25.8,22.7,51.6,34.1,77.4,5.4,12.8,16.5,41.6,35.9,30.9,22.4-12.3,6.2-42.5-2-58.6-1-2.1-1.5-3.1-2.6-5.2-7.4,4.2-11.1,6.3-18.6,10.3-4.6-9.8-9.1-19.6-13.7-29.3Z"/>
    </g>
    <path class="st1" d="M1623.9,857.5"/>
  </g>
</svg>